#!OML:ASF I:\Actors\actors\Patient Classification 2\Patient 1\Session 1\actor1.ASF
:FULLY-SPECIFIED
:DEGREES
1210
root -0.789339 18.6142 6.14279 -2.62695 -1.64103 -2.15734
lowerback 3.6373 1.20768 2.3136
upperback 0.453783 1.71829 1.02181
thorax -1.53597 0.846713 -0.332054
lowerneck -7.77589 -2.08662 0.201342
upperneck 17.735 -3.2819 2.14611
head 6.71508 -1.39197 0.389944
rclavicle 2.50542e-014 9.0447e-015
rhumerus -63.1554 5.67268 -87.9355
rradius 82.0798
rwrist -14.4116
rhand -0.768028 -50.9571
rfingers 7.12502
rthumb 24.8545 -79.3615
lclavicle 2.50542e-014 9.0447e-015
lhumerus -44.8006 -1.23102 92.3145
lradius 52.9763
lwrist 6.52558
lhand -6.50744 -21.3006
lfingers 7.12502
lthumb 19.3445 7.75725
rfemur 13.0245 4.45938 17.5454
rtibia -2.38542e-014
rfoot -20.2165 -11.9212
rtoes -4.39902
lfemur -0.519344 -7.74763 -13.3996
ltibia 22.8842
lfoot -23.2163 12.8332
ltoes -57.3677
1211
root -0.789687 18.615 6.14849 -2.58431 -1.48393 -2.1757
lowerback 3.63034 1.16702 2.2429
upperback 0.416556 1.66115 0.975344
thorax -1.57216 0.817943 -0.337812
lowerneck -7.779 -1.99124 0.387405
upperneck 17.3564 -3.10828 1.81424
head 6.58402 -1.32804 0.26869
rclavicle -2.64982e-015 5.1684e-015
rhumerus -63.0795 5.0619 -87.6109
rradius 78.8437
rwrist -13.5485
rhand -1.26131 -50.4208
rfingers 7.12502
rthumb 24.3817 -78.8896
lclavicle -2.64982e-015 5.1684e-015
lhumerus -44.297 -0.360492 91.8433
lradius 50.8814
lwrist 5.83188
lhand -6.72026 -22.2809
lfingers 7.12502
lthumb 19.1399 6.79733
rfemur 13.0227 4.30011 17.5533
rtibia -5.08889e-014
rfoot -20.2709 -11.8945
rtoes -4.26115
lfemur -0.606293 -7.88215 -13.3774
ltibia 22.9441
lfoot -23.2551 12.7887
ltoes -57.3433
1212
root -0.790532 18.6157 6.15352 -2.52252 -1.35959 -2.21272
lowerback 3.64146 1.13516 2.20362
upperback 0.344629 1.61785 0.90625
thorax -1.65224 0.795196 -0.385826
lowerneck -7.88198 -1.93474 0.484253
upperneck 17.1795 -3.0089 1.62837
head 6.54026 -1.29037 0.201
rclavicle 1.70073e-014 -5.56597e-015
rhumerus -62.7719 4.22927 -87.2492
rradius 75.2641
rwrist -12.3635
rhand -1.89176 -49.7134
rfingers 7.12502
rthumb 23.7772 -78.2622
lclavicle 1.70073e-014 -5.56597e-015
lhumerus -44.9071 -0.427806 91.6384
lradius 51.6121
lwrist 5.83218
lhand -6.60666 -21.3843
lfingers 7.12502
lthumb 19.2491 7.68309
rfemur 12.9896 4.17096 17.5857
rtibia -8.5875e-014
rfoot -20.2946 -11.8885
rtoes -4.3739
lfemur -0.756767 -8.03133 -13.3379
ltibia 23.0944
lfoot -23.3374 12.8146
ltoes -57.3565
1213
root -0.783421 18.6144 6.15755 -2.5129 -1.26442 -2.43847
lowerback 3.72933 1.09614 2.45986
upperback 0.267102 1.58046 0.885731
thorax -1.77446 0.772784 -0.551293
lowerneck -7.98406 -1.87815 0.453497
upperneck 17.1353 -2.92092 1.59428
head 6.5433 -1.25244 0.20132
rclavicle 4.7487e-015 -2.5842e-015
rhumerus -62.2293 3.20403 -86.6964
rradius 71.3285
rwrist -10.8752
rhand -2.35499 -49.0246
rfingers 7.12502
rthumb 23.3329 -77.6305
lclavicle 4.7487e-015 -2.5842e-015
lhumerus -44.9359 0.010327 91.2944
lradius 50.8795
lwrist 5.28584
lhand -6.57879 -21.1842
lfingers 7.12502
lthumb 19.2759 7.88047
rfemur 13.0151 4.06586 17.8073
rtibia -3.02153e-014
rfoot -20.3053 -11.8802
rtoes -4.55723
lfemur -0.774119 -8.1865 -13.1301
ltibia 23.1433
lfoot -23.3865 12.9028
ltoes -57.4038
1214
root -0.760275 18.6076 6.15927 -2.65273 -1.15576 -2.98849
lowerback 3.96133 1.01456 3.32814
upperback 0.237571 1.51903 0.897919
thorax -1.91456 0.732873 -1.02649
lowerneck -8.05983 -1.80275 0.375923
upperneck 17.1244 -2.81059 1.61709
head 6.55374 -1.20188 0.229499
rclavicle -2.34712e-014 3.97569e-015
rhumerus -61.4223 1.95361 -85.9681
rradius 67.0231
rwrist -9.10302
rhand -2.96304 -48.1174
rfingers 7.12502
rthumb 22.7494 -76.7962
lclavicle -2.34712e-014 3.97569e-015
lhumerus -42.2263 -1.37032 91.6094
lradius 43.966
lwrist 6.30814
lhand -8.82652 -24.865
lfingers 7.12502
lthumb 17.1134 4.4013
rfemur 13.2065 3.94141 18.3412
rtibia 2.22639e-014
rfoot -20.28 -11.9244
rtoes -5.03818
lfemur -0.585465 -8.34512 -12.6376
ltibia 23.1658
lfoot -23.4432 12.9099
ltoes -57.4455
1215
root -0.785755 18.6151 6.17889 -2.35699 -1.27271 -2.44333
lowerback 3.39557 1.10191 2.24187
upperback 0.163506 1.56909 0.779963
thorax -1.69693 0.768662 -0.531164
lowerneck -8.0829 -1.71836 0.447353
upperneck 17.0506 -2.68387 1.50191
head 6.53068 -1.14618 0.191185
rclavicle -1.56936e-014 6.67171e-015
rhumerus -60.3654 0.405214 -85.1231
rradius 62.4272
rwrist -7.18362
rhand -3.5539 -47.1224
rfingers 7.12502
rthumb 22.1823 -75.8697
lclavicle -1.56936e-014 6.67171e-015
lhumerus -42.7697 0.1347 90.822
lradius 44.2849
lwrist 4.72272
lhand -8.02691 -23.9265
lfingers 7.12502
lthumb 17.8829 5.2713
rfemur 12.9113 4.06672 17.8095
rtibia 1.59028e-014
rfoot -20.3006 -11.8813
rtoes -4.84509
lfemur -0.833641 -8.53463 -13.1815
ltibia 23.1325
lfoot -23.5823 13.1615
ltoes -57.3412
1216
root -0.795992 18.619 6.19067 -2.15404 -1.3257 -2.27685
lowerback 3.0918 1.1425 1.78414
upperback 0.0600411 1.59885 0.720114
thorax -1.64279 0.786891 -0.332365
lowerneck -8.05273 -1.65112 0.601076
upperneck 16.9462 -2.57228 1.2749
head 6.48625 -1.10223 0.103074
rclavicle 1.13259e-014 1.90088e-015
rhumerus -59.1571 -1.49768 -84.0657
rradius 57.6393
rwrist -5.15762
rhand -4.34957 -46.1008
rfingers 7.12502
rthumb 21.4182 -74.9369
lclavicle 1.13259e-014 1.90088e-015
lhumerus -44.5017 2.17914 89.7895
lradius 47.0775
lwrist 2.43946
lhand -6.36116 -21.8061
lfingers 7.12502
lthumb 19.4851 7.2376
rfemur 12.7125 4.1147 17.6504
rtibia -9.54166e-015
rfoot -20.3513 -11.8447
rtoes -4.6479
lfemur -0.982969 -8.6679 -13.3375
ltibia 23.0737
lfoot -23.6685 13.3128
ltoes -57.2434
1217
root -0.79744 18.62 6.19995 -2.04863 -1.33058 -2.27181
lowerback 2.93421 1.15593 1.64137
upperback -0.030512 1.60894 0.683812
thorax -1.65002 0.792506 -0.287739
lowerneck -8.09154 -1.62661 0.606108
upperneck 16.9531 -2.52341 1.1797
head 6.49359 -1.08572 0.0754009
rclavicle -8.79933e-015 -4.47266e-015
rhumerus -57.8407 -4.04116 -82.3805
rradius 52.2831
rwrist -2.44114
rhand -6.0811 -43.6572
rfingers 7.12502
rthumb 19.7544 -72.6734
lclavicle -8.79933e-015 -4.47266e-015
lhumerus -44.4054 2.91462 89.2473
lradius 45.8073
lwrist 1.34347
lhand -6.1941 -21.9578
lfingers 7.12502
lthumb 19.6458 7.06955
rfemur 12.6216 4.11394 17.6472
rtibia -5.56597e-014
rfoot -20.3995 -11.8393
rtoes -4.73444
lfemur -0.982089 -8.79191 -13.3442
ltibia 22.9255
lfoot -23.7028 13.4134
ltoes -57.1445
1218
root -0.798312 18.6191 6.21131 -1.96437 -1.3423 -2.31818
lowerback 2.75091 1.17443 1.55106
upperback -0.104055 1.62777 0.690539
thorax -1.62507 0.802599 -0.227873
lowerneck -8.18569 -1.63454 0.498604
upperneck 17.0582 -2.51585 1.14925
head 6.54441 -1.08981 0.0827071
rclavicle -1.81942e-014 -2.03754e-015
rhumerus -56.6702 -7.23585 -80.0867
rradius 47.1663
rwrist 1.26989
rhand -7.21153 -42.5747
rfingers 7.12502
rthumb 18.6674 -71.699
lclavicle -1.81942e-014 -2.03754e-015
lhumerus -44.2538 3.76958 88.6933
lradius 44.4002
lwrist 0.0587871
lhand -6.07527 -22.2756
lfingers 7.12502
lthumb 19.76 6.74004
rfemur 12.5616 4.11853 17.7013
rtibia 1.74931e-014
rfoot -20.4317 -11.8461
rtoes -4.91672
lfemur -0.993865 -8.91457 -13.3001
ltibia 22.886
lfoot -23.8078 13.4413
ltoes -56.9918
1219
root -0.799484 18.618 6.22177 -1.89357 -1.32145 -2.36864
lowerback 2.57416 1.18272 1.43283
upperback -0.177813 1.63322 0.734729
thorax -1.6061 0.80639 -0.113619
lowerneck -8.27169 -1.62993 0.386912
upperneck 17.1972 -2.48141 1.06737
head 6.60388 -1.08523 0.0763903
rclavicle -3.59754e-015 2.88238e-015
rhumerus -55.9212 -10.9759 -77.182
rradius 42.5543
rwrist 5.79745
rhand -8.25333 -41.8612
rfingers 7.12502
rthumb 17.6651 -71.0787
lclavicle -3.59754e-015 2.88238e-015
lhumerus -44.0429 4.77558 88.0876
lradius 42.786
lwrist -1.3537
lhand -6.07423 -22.9012
lfingers 7.12502
lthumb 19.761 6.11431
rfemur 12.5212 4.0913 17.7586
rtibia 1.27222e-014
rfoot -20.4812 -11.8413
rtoes -4.85837
lfemur -1.01932 -9.08055 -13.2601
ltibia 22.8867
lfoot -23.9404 13.4816
ltoes -56.8725
1220
root -0.799653 18.6172 6.23034 -1.86001 -1.28562 -2.41978
lowerback 2.44402 1.17214 1.30561
upperback -0.232935 1.61451 0.796973
thorax -1.59515 0.798334 0.0242204
lowerneck -8.35575 -1.60536 0.329621
upperneck 17.3313 -2.40986 0.887929
head 6.65945 -1.06761 0.0329469
rclavicle -7.66796e-015 4.02539e-015
rhumerus -55.7833 -14.8543 -73.9176
rradius 38.8422
rwrist 10.3795
rhand -9.62484 -41.7826
rfingers 7.12502
rthumb 16.3449 -71.1138
lclavicle -7.66796e-015 4.02539e-015
lhumerus -43.8301 6.00038 87.3242
lradius 40.948
lwrist -2.82383
lhand -6.06646 -24.3037
lfingers 7.12502
lthumb 19.7685 4.71101
rfemur 12.5165 4.05152 17.8132
rtibia 9.54166e-015
rfoot -20.4969 -11.8375
rtoes -4.80909
lfemur -1.02152 -9.32474 -13.2445
ltibia 22.8993
lfoot -24.0865 13.6181
ltoes -56.8265
1221
root -0.798249 18.6164 6.23887 -1.81378 -1.28121 -2.43824
lowerback 2.29609 1.16943 1.16097
upperback -0.259932 1.60499 0.839076
thorax -1.54511 0.795236 0.151584
lowerneck -8.50521 -1.58199 0.431404
upperneck 17.424 -2.33423 0.543361
head 6.70941 -1.05184 -0.089813
rclavicle 1.73626e-014 -1.04859e-014
rhumerus -56.3298 -18.1963 -70.9668
rradius 36.622
rwrist 13.7531
rhand -11.2553 -42.8768
rfingers 7.12502
rthumb 14.7746 -72.3302
lclavicle 1.73626e-014 -1.04859e-014
lhumerus -42.9004 7.82593 86.4452
lradius 38.2507
lwrist -5.27393
lhand -6.032 -23.4213
lfingers 7.12502
lthumb 19.8016 5.59001
rfemur 12.4951 4.04538 17.8248
rtibia -2.54444e-014
rfoot -20.5104 -11.7989
rtoes -4.69175
lfemur -1.04418 -9.49341 -13.2591
ltibia 22.9259
lfoot -24.2053 13.7646
ltoes -56.884
